<?xml version="1.0" encoding="UTF-8" standalone="no"?>
<svg
   xmlns:dc="http://purl.org/dc/elements/1.1/"
   xmlns:cc="http://creativecommons.org/ns#"
   xmlns:rdf="http://www.w3.org/1999/02/22-rdf-syntax-ns#"
   xmlns:svg="http://www.w3.org/2000/svg"
   xmlns="http://www.w3.org/2000/svg"
   id="svg6"
   version="1.1"
   viewBox="0 0 486.50849 236.74578"
   height="236.74577"
   width="486.50848">
  <metadata
     id="metadata12">
    <rdf:RDF>
      <cc:Work
         rdf:about="">
        <dc:format>image/svg+xml</dc:format>
        <dc:type
           rdf:resource="http://purl.org/dc/dcmitype/StillImage" />
        <dc:title></dc:title>
      </cc:Work>
    </rdf:RDF>
  </metadata>
  <defs
     id="defs10" />
  <rect
     y="0"
     x="0"
     height="236.74577"
     width="486.50848"
     id="rect933"
     style="opacity:0.98000004;fill:none;fill-opacity:1;stroke-width:0.93944699" />
  <path
     style="fill:none"
     id="path2"
     d="m 215.00069,55.738978 h 24 v 24 h -24 z" />
  <path
     style="fill:#03a9f4;fill-opacity:1;stroke-width:4.90508509"
     id="path4"
     d="m 235.11865,35.593216 c -27.07607,0 -49.05085,21.97478 -49.05085,49.050848 0,27.076066 21.97478,49.050846 49.05085,49.050846 27.07607,0 49.05085,-21.97478 49.05085,-49.050846 0,-27.076068 -21.97478,-49.050848 -49.05085,-49.050848 z m 22.07288,68.671184 h -41.69322 c -8.14244,0 -14.71525,-6.572811 -14.71525,-14.715252 0,-8.14244 6.57281,-14.715254 14.71525,-14.715254 l 0.68671,0.04905 c 2.15824,-8.485796 9.76112,-14.764306 18.93363,-14.764306 10.84024,0 19.62034,8.780103 19.62034,19.62034 h 2.45254 c 6.76902,0 12.26271,5.493695 12.26271,12.262712 0,6.769017 -5.49369,12.26271 -12.26271,12.26271 z" />
  <g
     id="text912"
     style="font-style:normal;font-weight:normal;font-size:40px;line-height:1.25;font-family:sans-serif;letter-spacing:0px;word-spacing:0px;fill:#03a9f4;fill-opacity:1;stroke:none"
     aria-label="Docker Swarm Rocks">
    <path
       id="path1019"
       style="font-style:normal;font-variant:normal;font-weight:normal;font-stretch:normal;font-family:Ubuntu;-inkscape-font-specification:Ubuntu;fill:#03a9f4;fill-opacity:1"
       d="m 72.396148,162.06237 q 0,3.6 -1.12,6.28 -1.12,2.64 -3.16,4.4 -2.04,1.72 -4.88,2.6 -2.84,0.84 -6.24,0.84 -1.68,0 -3.72,-0.16 -2,-0.12 -3.64,-0.52 v -26.88 q 1.64,-0.4 3.64,-0.52 2.04,-0.16 3.72,-0.16 3.4,0 6.24,0.88 2.84,0.84 4.88,2.6 2.04,1.72 3.16,4.4 1.12,2.64 1.12,6.24 z m -15.08,10.72 q 5.52,0 8.24,-2.8 2.72,-2.84 2.72,-7.92 0,-5.08 -2.72,-7.88 -2.72,-2.84 -8.24,-2.84 -1.64,0 -2.56,0.04 -0.88,0.04 -1.24,0.08 v 21.2 q 0.36,0.04 1.24,0.08 0.92,0.04 2.56,0.04 z" />
    <path
       id="path1021"
       style="font-style:normal;font-variant:normal;font-weight:normal;font-stretch:normal;font-family:Ubuntu;-inkscape-font-specification:Ubuntu;fill:#03a9f4;fill-opacity:1"
       d="m 96.271773,165.54237 q 0,2.48 -0.72,4.48 -0.72,2 -2.04,3.44 -1.28,1.44 -3.08,2.24 -1.8,0.76 -3.92,0.76 -2.12,0 -3.92,-0.76 -1.8,-0.8 -3.12,-2.24 -1.28,-1.44 -2,-3.44 -0.72,-2 -0.72,-4.48 0,-2.44 0.72,-4.44 0.72,-2.04 2,-3.48 1.32,-1.44 3.12,-2.2 1.8,-0.8 3.92,-0.8 2.12,0 3.92,0.8 1.8,0.76 3.08,2.2 1.32,1.44 2.04,3.48 0.72,2 0.72,4.44 z m -3.88,0 q 0,-3.52 -1.6,-5.56 -1.56,-2.08 -4.28,-2.08 -2.72,0 -4.32,2.08 -1.56,2.04 -1.56,5.56 0,3.52 1.56,5.6 1.6,2.04 4.32,2.04 2.72,0 4.28,-2.04 1.6,-2.08 1.6,-5.6 z" />
    <path
       id="path1023"
       style="font-style:normal;font-variant:normal;font-weight:normal;font-stretch:normal;font-family:Ubuntu;-inkscape-font-specification:Ubuntu;fill:#03a9f4;fill-opacity:1"
       d="m 110.54552,176.42237 q -2.52,0 -4.44,-0.8 -1.88,-0.8 -3.2,-2.24 -1.28,-1.44 -1.92,-3.4 -0.64,-2 -0.64,-4.4 0,-2.4 0.68,-4.4 0.72,-2 2,-3.44 1.28,-1.48 3.12,-2.28 1.88,-0.84 4.16,-0.84 1.4,0 2.8,0.24 1.4,0.24 2.68,0.76 l -0.84,3.16 q -0.84,-0.4 -1.96,-0.64 -1.08,-0.24 -2.32,-0.24 -3.12,0 -4.8,1.96 -1.64,1.96 -1.64,5.72 0,1.68 0.36,3.08 0.4,1.4 1.2,2.4 0.84,1 2.12,1.56 1.28,0.52 3.12,0.52 1.48,0 2.68,-0.28 1.2,-0.28 1.88,-0.6 l 0.52,3.12 q -0.32,0.2 -0.92,0.4 -0.6,0.16 -1.36,0.28 -0.76,0.16 -1.64,0.24 -0.84,0.12 -1.64,0.12 z" />
    <path
       id="path1025"
       style="font-style:normal;font-variant:normal;font-weight:normal;font-stretch:normal;font-family:Ubuntu;-inkscape-font-specification:Ubuntu;fill:#03a9f4;fill-opacity:1"
       d="m 127.61927,164.50237 q 1.2,0.92 2.52,2.28 1.36,1.36 2.64,2.96 1.32,1.56 2.48,3.2 1.16,1.6 1.96,3 h -4.36 q -0.84,-1.4 -1.96,-2.84 -1.08,-1.48 -2.28,-2.8 -1.2,-1.36 -2.44,-2.48 -1.24,-1.12 -2.36,-1.88 v 10 h -3.72 v -30.4 l 3.72,-0.64 v 18.96 q 0.96,-0.96 2.12,-2.12 1.16,-1.16 2.28,-2.36 1.12,-1.2 2.12,-2.28 1,-1.12 1.72,-1.96 h 4.36 q -0.92,1 -2,2.2 -1.08,1.2 -2.24,2.44 -1.16,1.2 -2.36,2.44 -1.16,1.2 -2.2,2.28 z" />
    <path
       id="path1027"
       style="font-style:normal;font-variant:normal;font-weight:normal;font-stretch:normal;font-family:Ubuntu;-inkscape-font-specification:Ubuntu;fill:#03a9f4;fill-opacity:1"
       d="m 138.78302,165.58237 q 0,-2.76 0.8,-4.8 0.8,-2.08 2.12,-3.44 1.32,-1.36 3.04,-2.04 1.72,-0.68 3.52,-0.68 4.2,0 6.44,2.64 2.24,2.6 2.24,7.96 0,0.24 0,0.64 0,0.36 -0.04,0.68 h -14.24 q 0.24,3.24 1.88,4.92 1.64,1.68 5.12,1.68 1.96,0 3.28,-0.32 1.36,-0.36 2.04,-0.68 l 0.52,3.12 q -0.68,0.36 -2.4,0.76 -1.68,0.4 -3.84,0.4 -2.72,0 -4.72,-0.8 -1.96,-0.84 -3.24,-2.28 -1.28,-1.44 -1.92,-3.4 -0.6,-2 -0.6,-4.36 z m 14.28,-2.04 q 0.04,-2.52 -1.28,-4.12 -1.28,-1.64 -3.56,-1.64 -1.28,0 -2.28,0.52 -0.96,0.48 -1.64,1.28 -0.68,0.8 -1.08,1.84 -0.36,1.04 -0.48,2.12 z" />
    <path
       id="path1029"
       style="font-style:normal;font-variant:normal;font-weight:normal;font-stretch:normal;font-family:Ubuntu;-inkscape-font-specification:Ubuntu;fill:#03a9f4;fill-opacity:1"
       d="m 169.96677,154.70237 q 0.48,0 1.08,0.08 0.64,0.04 1.24,0.16 0.6,0.08 1.08,0.2 0.52,0.08 0.76,0.16 l -0.64,3.24 q -0.44,-0.16 -1.48,-0.36 -1,-0.24 -2.6,-0.24 -1.04,0 -2.08,0.24 -1,0.2 -1.32,0.28 v 17.48 h -3.72 v -19.92 q 1.32,-0.48 3.28,-0.88 1.96,-0.44 4.4,-0.44 z" />
    <path
       id="path1031"
       style="font-style:normal;font-variant:normal;font-weight:normal;font-stretch:normal;font-family:Ubuntu;-inkscape-font-specification:Ubuntu;fill:#03a9f4;fill-opacity:1"
       d="m 193.65427,173.18237 q 6.08,0 6.08,-4.16 0,-1.28 -0.56,-2.16 -0.52,-0.92 -1.44,-1.56 -0.92,-0.68 -2.12,-1.16 -1.16,-0.48 -2.48,-0.96 -1.52,-0.52 -2.88,-1.16 -1.36,-0.68 -2.36,-1.56 -1,-0.92 -1.6,-2.16 -0.56,-1.24 -0.56,-3 0,-3.64 2.48,-5.68 2.48,-2.04 6.84,-2.04 2.52,0 4.56,0.56 2.08,0.52 3.04,1.16 l -1.24,3.16 q -0.84,-0.52 -2.52,-1 -1.64,-0.52 -3.84,-0.52 -1.12,0 -2.08,0.24 -0.96,0.24 -1.68,0.72 -0.72,0.48 -1.16,1.24 -0.4,0.72 -0.4,1.72 0,1.12 0.44,1.88 0.44,0.76 1.24,1.36 0.8,0.56 1.84,1.04 1.08,0.48 2.36,0.96 1.8,0.72 3.28,1.44 1.52,0.72 2.6,1.72 1.12,1 1.72,2.4 0.6,1.36 0.6,3.32 0,3.64 -2.68,5.6 -2.64,1.96 -7.48,1.96 -1.64,0 -3.04,-0.24 -1.36,-0.2 -2.44,-0.48 -1.08,-0.32 -1.88,-0.64 -0.76,-0.36 -1.2,-0.6 l 1.16,-3.2 q 0.92,0.52 2.8,1.16 1.88,0.64 4.6,0.64 z" />
    <path
       id="path1033"
       style="font-style:normal;font-variant:normal;font-weight:normal;font-stretch:normal;font-family:Ubuntu;-inkscape-font-specification:Ubuntu;fill:#03a9f4;fill-opacity:1"
       d="m 225.22427,175.94237 q -1.12,-2.88 -2.4,-6.56 -1.24,-3.72 -2.28,-7.72 -1.04,4 -2.28,7.72 -1.24,3.68 -2.36,6.56 h -3.24 q -1.84,-4.12 -3.6,-9.4 -1.76,-5.28 -3.32,-11.4 h 4 q 0.4,1.88 0.96,4.08 0.56,2.2 1.16,4.4 0.64,2.2 1.32,4.24 0.68,2.04 1.28,3.56 0.68,-1.88 1.32,-3.96 0.68,-2.12 1.28,-4.24 0.6,-2.16 1.12,-4.2 0.56,-2.08 0.96,-3.88 h 3.08 q 0.36,1.8 0.88,3.88 0.52,2.04 1.12,4.2 0.6,2.12 1.24,4.24 0.68,2.08 1.36,3.96 0.6,-1.52 1.24,-3.56 0.68,-2.04 1.32,-4.24 0.64,-2.2 1.2,-4.4 0.56,-2.2 0.96,-4.08 h 3.84 q -1.56,6.12 -3.32,11.4 -1.76,5.28 -3.6,9.4 z" />
    <path
       id="path1035"
       style="font-style:normal;font-variant:normal;font-weight:normal;font-stretch:normal;font-family:Ubuntu;-inkscape-font-specification:Ubuntu;fill:#03a9f4;fill-opacity:1"
       d="m 246.35802,173.26237 q 1.32,0 2.32,-0.04 1.04,-0.08 1.72,-0.24 v -6.2 q -0.4,-0.2 -1.32,-0.32 -0.88,-0.16 -2.16,-0.16 -0.84,0 -1.8,0.12 -0.92,0.12 -1.72,0.52 -0.76,0.36 -1.28,1.04 -0.52,0.64 -0.52,1.72 0,2 1.28,2.8 1.28,0.76 3.48,0.76 z m -0.32,-18.64 q 2.24,0 3.76,0.6 1.56,0.56 2.48,1.64 0.96,1.04 1.36,2.52 0.4,1.44 0.4,3.2 v 13 q -0.48,0.08 -1.36,0.24 -0.84,0.12 -1.92,0.24 -1.08,0.12 -2.36,0.2 -1.24,0.12 -2.48,0.12 -1.76,0 -3.24,-0.36 -1.48,-0.36 -2.56,-1.12 -1.08,-0.8 -1.68,-2.08 -0.6,-1.28 -0.6,-3.08 0,-1.72 0.68,-2.96 0.72,-1.24 1.92,-2 1.2,-0.76 2.8,-1.12 1.6,-0.36 3.36,-0.36 0.56,0 1.16,0.08 0.6,0.04 1.12,0.16 0.56,0.08 0.96,0.16 0.4,0.08 0.56,0.12 v -1.04 q 0,-0.92 -0.2,-1.8 -0.2,-0.92 -0.72,-1.6 -0.52,-0.72 -1.44,-1.12 -0.88,-0.44 -2.32,-0.44 -1.84,0 -3.24,0.28 -1.36,0.24 -2.04,0.52 l -0.44,-3.08 q 0.72,-0.32 2.4,-0.6 1.68,-0.32 3.64,-0.32 z" />
    <path
       id="path1037"
       style="font-style:normal;font-variant:normal;font-weight:normal;font-stretch:normal;font-family:Ubuntu;-inkscape-font-specification:Ubuntu;fill:#03a9f4;fill-opacity:1"
       d="m 267.8574,154.70237 q 0.48,0 1.08,0.08 0.64,0.04 1.24,0.16 0.6,0.08 1.08,0.2 0.52,0.08 0.76,0.16 l -0.64,3.24 q -0.44,-0.16 -1.48,-0.36 -1,-0.24 -2.6,-0.24 -1.04,0 -2.08,0.24 -1,0.2 -1.32,0.28 v 17.48 h -3.72 v -19.92 q 1.32,-0.48 3.28,-0.88 1.96,-0.44 4.4,-0.44 z" />
    <path
       id="path1039"
       style="font-style:normal;font-variant:normal;font-weight:normal;font-stretch:normal;font-family:Ubuntu;-inkscape-font-specification:Ubuntu;fill:#03a9f4;fill-opacity:1"
       d="m 275.64615,155.74237 q 1.28,-0.32 3.36,-0.68 2.12,-0.36 4.88,-0.36 2,0 3.36,0.56 1.36,0.52 2.28,1.56 0.28,-0.2 0.88,-0.56 0.6,-0.36 1.48,-0.68 0.88,-0.36 1.96,-0.6 1.08,-0.28 2.32,-0.28 2.4,0 3.92,0.72 1.52,0.68 2.36,1.96 0.88,1.28 1.16,3.04 0.32,1.76 0.32,3.84 v 11.68 h -3.72 v -10.88 q 0,-1.84 -0.2,-3.16 -0.16,-1.32 -0.68,-2.2 -0.48,-0.88 -1.36,-1.28 -0.84,-0.44 -2.2,-0.44 -1.88,0 -3.12,0.52 -1.2,0.48 -1.64,0.88 0.32,1.04 0.48,2.28 0.16,1.24 0.16,2.6 v 11.68 h -3.72 v -10.88 q 0,-1.84 -0.2,-3.16 -0.2,-1.32 -0.72,-2.2 -0.48,-0.88 -1.36,-1.28 -0.84,-0.44 -2.16,-0.44 -0.56,0 -1.2,0.04 -0.64,0.04 -1.24,0.12 -0.56,0.04 -1.04,0.12 -0.48,0.08 -0.64,0.12 v 17.56 h -3.72 z" />
    <path
       id="path1041"
       style="font-style:normal;font-variant:normal;font-weight:normal;font-stretch:normal;font-family:Ubuntu;-inkscape-font-specification:Ubuntu;fill:#03a9f4;fill-opacity:1"
       d="m 333.11802,164.34237 q 0.64,0.8 1.6,2.12 1,1.28 2.04,2.88 1.04,1.56 2.04,3.28 1.04,1.72 1.76,3.32 h -4.24 q -0.8,-1.52 -1.76,-3.08 -0.92,-1.56 -1.88,-2.96 -0.96,-1.44 -1.92,-2.68 -0.92,-1.24 -1.68,-2.16 -0.52,0.04 -1.08,0.04 -0.52,0 -1.08,0 h -3.48 v 10.84 h -3.88 v -27.32 q 1.64,-0.4 3.64,-0.52 2.04,-0.16 3.72,-0.16 5.84,0 8.88,2.2 3.08,2.2 3.08,6.56 0,2.76 -1.48,4.72 -1.44,1.96 -4.28,2.92 z m -5.88,-13 q -2.48,0 -3.8,0.12 v 10.44 h 2.76 q 2,0 3.6,-0.2 1.6,-0.2 2.68,-0.76 1.12,-0.56 1.72,-1.56 0.6,-1.04 0.6,-2.72 0,-1.56 -0.6,-2.6 -0.6,-1.04 -1.64,-1.64 -1,-0.6 -2.4,-0.84 -1.36,-0.24 -2.92,-0.24 z" />
    <path
       id="path1043"
       style="font-style:normal;font-variant:normal;font-weight:normal;font-stretch:normal;font-family:Ubuntu;-inkscape-font-specification:Ubuntu;fill:#03a9f4;fill-opacity:1"
       d="m 362.83427,165.54237 q 0,2.48 -0.72,4.48 -0.72,2 -2.04,3.44 -1.28,1.44 -3.08,2.24 -1.8,0.76 -3.92,0.76 -2.12,0 -3.92,-0.76 -1.8,-0.8 -3.12,-2.24 -1.28,-1.44 -2,-3.44 -0.72,-2 -0.72,-4.48 0,-2.44 0.72,-4.44 0.72,-2.04 2,-3.48 1.32,-1.44 3.12,-2.2 1.8,-0.8 3.92,-0.8 2.12,0 3.92,0.8 1.8,0.76 3.08,2.2 1.32,1.44 2.04,3.48 0.72,2 0.72,4.44 z m -3.88,0 q 0,-3.52 -1.6,-5.56 -1.56,-2.08 -4.28,-2.08 -2.72,0 -4.32,2.08 -1.56,2.04 -1.56,5.56 0,3.52 1.56,5.6 1.6,2.04 4.32,2.04 2.72,0 4.28,-2.04 1.6,-2.08 1.6,-5.6 z" />
    <path
       id="path1045"
       style="font-style:normal;font-variant:normal;font-weight:normal;font-stretch:normal;font-family:Ubuntu;-inkscape-font-specification:Ubuntu;fill:#03a9f4;fill-opacity:1"
       d="m 377.10802,176.42237 q -2.52,0 -4.44,-0.8 -1.88,-0.8 -3.2,-2.24 -1.28,-1.44 -1.92,-3.4 -0.64,-2 -0.64,-4.4 0,-2.4 0.68,-4.4 0.72,-2 2,-3.44 1.28,-1.48 3.12,-2.28 1.88,-0.84 4.16,-0.84 1.4,0 2.8,0.24 1.4,0.24 2.68,0.76 l -0.84,3.16 q -0.84,-0.4 -1.96,-0.64 -1.08,-0.24 -2.32,-0.24 -3.12,0 -4.8,1.96 -1.64,1.96 -1.64,5.72 0,1.68 0.36,3.08 0.4,1.4 1.2,2.4 0.84,1 2.12,1.56 1.28,0.52 3.12,0.52 1.48,0 2.68,-0.28 1.2,-0.28 1.88,-0.6 l 0.52,3.12 q -0.32,0.2 -0.92,0.4 -0.6,0.16 -1.36,0.28 -0.76,0.16 -1.64,0.24 -0.84,0.12 -1.64,0.12 z" />
    <path
       id="path1047"
       style="font-style:normal;font-variant:normal;font-weight:normal;font-stretch:normal;font-family:Ubuntu;-inkscape-font-specification:Ubuntu;fill:#03a9f4;fill-opacity:1"
       d="m 394.18177,164.50237 q 1.2,0.92 2.52,2.28 1.36,1.36 2.64,2.96 1.32,1.56 2.48,3.2 1.16,1.6 1.96,3 h -4.36 q -0.84,-1.4 -1.96,-2.84 -1.08,-1.48 -2.28,-2.8 -1.2,-1.36 -2.44,-2.48 -1.24,-1.12 -2.36,-1.88 v 10 h -3.72 v -30.4 l 3.72,-0.64 v 18.96 q 0.96,-0.96 2.12,-2.12 1.16,-1.16 2.28,-2.36 1.12,-1.2 2.12,-2.28 1,-1.12 1.72,-1.96 h 4.36 q -0.92,1 -2,2.2 -1.08,1.2 -2.24,2.44 -1.16,1.2 -2.36,2.44 -1.16,1.2 -2.2,2.28 z" />
    <path
       id="path1049"
       style="font-style:normal;font-variant:normal;font-weight:normal;font-stretch:normal;font-family:Ubuntu;-inkscape-font-specification:Ubuntu;fill:#03a9f4;fill-opacity:1"
       d="m 412.36115,173.26237 q 2.28,0 3.36,-0.6 1.12,-0.6 1.12,-1.92 0,-1.36 -1.08,-2.16 -1.08,-0.8 -3.56,-1.8 -1.2,-0.48 -2.32,-0.96 -1.08,-0.52 -1.88,-1.2 -0.8,-0.68 -1.28,-1.64 -0.48,-0.96 -0.48,-2.36 0,-2.76 2.04,-4.36 2.04,-1.64 5.56,-1.64 0.88,0 1.76,0.12 0.88,0.08 1.64,0.24 0.76,0.12 1.32,0.28 0.6,0.16 0.92,0.28 l -0.68,3.2 q -0.6,-0.32 -1.88,-0.64 -1.28,-0.36 -3.08,-0.36 -1.56,0 -2.72,0.64 -1.16,0.6 -1.16,1.92 0,0.68 0.24,1.2 0.28,0.52 0.8,0.96 0.56,0.4 1.36,0.76 0.8,0.36 1.92,0.76 1.48,0.56 2.64,1.12 1.16,0.52 1.96,1.24 0.84,0.72 1.28,1.76 0.44,1 0.44,2.48 0,2.88 -2.16,4.36 -2.12,1.48 -6.08,1.48 -2.76,0 -4.32,-0.48 -1.56,-0.44 -2.12,-0.68 l 0.68,-3.2 q 0.64,0.24 2.04,0.72 1.4,0.48 3.72,0.48 z" />
  </g>
</svg>
